<svg width="48" height="48" viewBox="0 0 48 48" fill="none" xmlns="http://www.w3.org/2000/svg">
<path d="M0 0H48V48H0V0Z" fill="#232442"/>
<path d="M18.4186 39.8816L4.92178 12.2283L14.1564 12.2791L17.5053 19.2304L18.5201 20.1945L24.2537 8.21987L26.1311 12.2791H43.129L30.1395 39.7294L24.9133 28.9218L24.2537 27.4503L18.4186 39.8816Z" fill="#CCADF7"/>
<path d="M19.1797 18.8753L13.7505 30.444L12.8372 29.074L14.6131 25.37L9.69133 15.3235H12.2791L15.8816 22.833L17.556 19.2812L19.1797 18.8753Z" fill="#232442"/>
<path d="M24.203 15.0698L17.0486 30.2918L18.4186 33.0825L25.6237 17.9112L24.203 15.0698Z" fill="#232442"/>
<path d="M30.1395 20.8034L29.4512 19.3429L27.8055 22.8837L30.0888 27.6533L36.0254 15.3235H38.4101L30.0888 32.778L26.5877 25.5729L24.6596 29.6321L24.1015 27.7548L28.7769 17.9119L25.9789 11.9746H34.4017L30.1395 20.8034Z" fill="#232442"/>
</svg>
